<?xml version="1.0" encoding="utf-8"?>
<!-- Generator: Adobe Illustrator 27.2.0, SVG Export Plug-In . SVG Version: 6.00 Build 0)  -->
<svg version="1.0" id="Ebene_1" xmlns="http://www.w3.org/2000/svg" xmlns:xlink="http://www.w3.org/1999/xlink" x="0px" y="0px"
	 viewBox="0 0 50 50" enable-background="new 0 0 50 50" xml:space="preserve">
<g>
	<rect x="1.12" y="20.042" fill="#164291" width="14.885" height="9.916"/>
	<polygon fill="#FDEB1A" points="8.26,22.187 8.563,21.96 8.891,22.187 8.765,21.834 9.093,21.607 8.689,21.607 8.563,21.228 
		8.437,21.607 8.058,21.607 8.361,21.834 	"/>
	<polygon fill="#FDEB1A" points="6.62,22.641 6.948,22.414 7.251,22.641 7.125,22.263 7.453,22.035 7.049,22.035 6.948,21.657 
		6.822,22.035 6.418,22.035 6.747,22.263 	"/>
	<polygon fill="#FDEB1A" points="5.763,22.843 5.636,23.222 5.233,23.222 5.56,23.449 5.435,23.827 5.763,23.6 6.065,23.827 
		5.939,23.449 6.267,23.222 5.863,23.222 	"/>
	<polygon fill="#FDEB1A" points="5.308,25.215 5.636,25.442 5.51,25.088 5.838,24.862 5.435,24.862 5.308,24.483 5.208,24.862 
		4.804,24.862 5.132,25.088 5.006,25.442 	"/>
	<polygon fill="#FDEB1A" points="5.863,26.476 5.763,26.098 5.636,26.476 5.233,26.476 5.561,26.703 5.435,27.082 5.763,26.855 
		6.066,27.082 5.939,26.703 6.267,26.476 	"/>
	<polygon fill="#FDEB1A" points="7.074,27.662 6.948,27.283 6.822,27.662 6.419,27.662 6.747,27.889 6.62,28.268 6.948,28.04 
		7.251,28.268 7.15,27.889 7.453,27.662 	"/>
	<polygon fill="#FDEB1A" points="8.689,28.091 8.563,27.738 8.437,28.091 8.058,28.091 8.361,28.343 8.26,28.697 8.563,28.469 
		8.891,28.697 8.765,28.343 9.093,28.091 	"/>
	<polygon fill="#FDEB1A" points="10.304,27.662 10.203,27.283 10.077,27.662 9.673,27.662 10.001,27.889 9.875,28.268 10.203,28.04 
		10.506,28.268 10.38,27.889 10.708,27.662 	"/>
	<polygon fill="#FDEB1A" points="11.515,26.476 11.389,26.098 11.263,26.476 10.859,26.476 11.187,26.703 11.061,27.082 
		11.389,26.855 11.691,27.082 11.566,26.703 11.893,26.476 	"/>
	<polygon fill="#FDEB1A" points="12.322,24.836 11.944,24.836 11.818,24.483 11.691,24.836 11.288,24.836 11.616,25.063 
		11.49,25.442 11.818,25.215 12.12,25.442 12.019,25.063 	"/>
	<polygon fill="#FDEB1A" points="11.061,23.827 11.389,23.6 11.692,23.827 11.565,23.448 11.893,23.221 11.515,23.221 
		11.389,22.843 11.263,23.221 10.859,23.221 11.187,23.448 	"/>
	<polygon fill="#FDEB1A" points="10.203,21.657 10.077,22.036 9.673,22.036 10.001,22.263 9.875,22.641 10.203,22.414 
		10.506,22.641 10.379,22.263 10.707,22.036 10.304,22.036 	"/>
	<polygon fill="#114E9D" points="18.176,24.256 18.176,21.91 19.79,21.91 19.79,22.313 18.655,22.313 18.655,22.868 19.639,22.868 
		19.639,23.272 18.655,23.272 18.655,24.281 18.176,24.281 	"/>
	<g>
		<defs>
			<rect id="SVGID_1_" x="1.12" y="20.043" width="47.759" height="9.915"/>
		</defs>
		<clipPath id="SVGID_00000115478399718049400180000016648746328879876259_">
			<use xlink:href="#SVGID_1_"  overflow="visible"/>
		</clipPath>
		<path clip-path="url(#SVGID_00000115478399718049400180000016648746328879876259_)" fill="#114E9D" d="M21.304,24.256v-0.252
			c-0.051,0.101-0.151,0.151-0.252,0.227c-0.101,0.05-0.202,0.076-0.328,0.076c-0.126,0-0.227-0.026-0.303-0.076
			c-0.101-0.051-0.151-0.126-0.202-0.202c-0.051-0.101-0.051-0.227-0.051-0.379v-1.085h0.454v0.782c0,0.227,0,0.378,0.025,0.429
			c0.025,0.051,0.05,0.101,0.101,0.126c0.051,0.025,0.101,0.05,0.177,0.05s0.151-0.025,0.202-0.076
			c0.05-0.05,0.101-0.101,0.126-0.151c0.026-0.05,0.026-0.227,0.026-0.454v-0.707h0.454v1.69H21.304z"/>
		<path clip-path="url(#SVGID_00000115478399718049400180000016648746328879876259_)" fill="#114E9D" d="M23.726,24.256h-0.454
			v-0.858c0-0.177,0-0.302-0.025-0.353c-0.025-0.051-0.051-0.101-0.101-0.126c-0.051-0.025-0.101-0.05-0.151-0.05
			c-0.076,0-0.151,0.025-0.202,0.076c-0.05,0.05-0.101,0.101-0.126,0.177s-0.025,0.202-0.025,0.379v0.782h-0.454v-1.69h0.429v0.252
			c0.151-0.202,0.328-0.277,0.555-0.277c0.101,0,0.202,0.025,0.278,0.051c0.075,0.025,0.151,0.076,0.177,0.126
			c0.05,0.051,0.076,0.126,0.076,0.202s0.025,0.177,0.025,0.302V24.256z"/>
		<path clip-path="url(#SVGID_00000115478399718049400180000016648746328879876259_)" fill="#114E9D" d="M24.558,23.373
			c0,0.177,0.026,0.303,0.076,0.404c0.076,0.126,0.177,0.177,0.303,0.177c0.101,0,0.202-0.05,0.252-0.126
			c0.076-0.076,0.101-0.227,0.101-0.404c0-0.202-0.025-0.328-0.101-0.429c-0.076-0.101-0.151-0.126-0.277-0.126
			c-0.101,0-0.202,0.05-0.278,0.126C24.584,23.07,24.558,23.196,24.558,23.373 M25.744,24.256h-0.404v-0.252
			c-0.076,0.101-0.151,0.177-0.252,0.227c-0.101,0.05-0.202,0.076-0.278,0.076c-0.202,0-0.353-0.076-0.504-0.227
			c-0.151-0.151-0.202-0.379-0.202-0.656c0-0.278,0.076-0.505,0.202-0.656c0.126-0.151,0.303-0.227,0.504-0.227
			c0.202,0,0.354,0.076,0.505,0.227V21.91h0.454v2.346H25.744z"/>
		<path clip-path="url(#SVGID_00000115478399718049400180000016648746328879876259_)" fill="#114E9D" d="M27.208,23.272
			c0-0.126-0.025-0.227-0.101-0.302c-0.076-0.076-0.151-0.101-0.227-0.101c-0.101,0-0.177,0.026-0.252,0.101
			c-0.076,0.076-0.101,0.177-0.101,0.302H27.208z M27.182,23.726l0.454,0.076c-0.051,0.177-0.151,0.277-0.278,0.379
			c-0.126,0.101-0.277,0.126-0.479,0.126c-0.303,0-0.504-0.101-0.656-0.277c-0.101-0.151-0.177-0.354-0.177-0.58
			c0-0.278,0.076-0.505,0.227-0.656c0.151-0.151,0.328-0.227,0.555-0.227c0.252,0,0.454,0.076,0.605,0.252
			c0.151,0.177,0.227,0.429,0.202,0.757h-1.135c0,0.126,0.05,0.227,0.101,0.303c0.076,0.076,0.151,0.101,0.252,0.101
			c0.076,0,0.126-0.025,0.177-0.05C27.082,23.903,27.157,23.802,27.182,23.726"/>
		<path clip-path="url(#SVGID_00000115478399718049400180000016648746328879876259_)" fill="#114E9D" d="M28.368,23.373
			c0,0.177,0.025,0.303,0.076,0.404c0.076,0.126,0.177,0.177,0.303,0.177c0.101,0,0.202-0.05,0.252-0.126
			c0.076-0.076,0.101-0.227,0.101-0.404c0-0.202-0.025-0.328-0.101-0.429c-0.076-0.101-0.151-0.126-0.278-0.126
			c-0.101,0-0.202,0.05-0.277,0.126C28.419,23.07,28.368,23.196,28.368,23.373 M29.579,24.256h-0.429v-0.252
			c-0.076,0.101-0.151,0.177-0.252,0.227c-0.101,0.05-0.202,0.076-0.278,0.076c-0.202,0-0.353-0.076-0.504-0.227
			c-0.151-0.151-0.202-0.379-0.202-0.656c0-0.278,0.076-0.505,0.202-0.656c0.126-0.151,0.303-0.227,0.504-0.227
			c0.202,0,0.353,0.076,0.504,0.227V21.91h0.454V24.256z"/>
		<path clip-path="url(#SVGID_00000115478399718049400180000016648746328879876259_)" fill="#114E9D" d="M31.371,23.373
			c0,0.177,0.025,0.303,0.076,0.379c0.076,0.126,0.177,0.177,0.302,0.177c0.101,0,0.177-0.051,0.253-0.126
			c0.075-0.076,0.101-0.227,0.101-0.404c0-0.202-0.026-0.328-0.101-0.429c-0.076-0.101-0.151-0.126-0.278-0.126
			c-0.101,0-0.202,0.051-0.277,0.126C31.396,23.07,31.371,23.196,31.371,23.373 M30.916,24.256V21.91h0.454v0.857
			c0.126-0.151,0.302-0.227,0.504-0.227c0.202,0,0.379,0.076,0.504,0.227c0.126,0.151,0.202,0.354,0.202,0.656
			c0,0.302-0.076,0.504-0.202,0.681c-0.126,0.151-0.303,0.227-0.504,0.227c-0.101,0-0.202-0.025-0.278-0.076
			c-0.101-0.051-0.177-0.126-0.252-0.227v0.252h-0.429V24.256z"/>
		<path clip-path="url(#SVGID_00000115478399718049400180000016648746328879876259_)" fill="#114E9D" d="M32.733,22.565h0.479
			l0.404,1.211l0.404-1.211h0.454l-0.606,1.64l-0.101,0.303c-0.051,0.101-0.076,0.177-0.101,0.227
			c-0.026,0.051-0.076,0.101-0.126,0.126c-0.051,0.025-0.101,0.05-0.177,0.076c-0.076,0.025-0.151,0.025-0.227,0.025
			s-0.177,0-0.252-0.025l-0.051-0.354c0.076,0.025,0.126,0.025,0.202,0.025c0.101,0,0.177-0.025,0.227-0.101
			c0.051-0.076,0.101-0.151,0.126-0.227L32.733,22.565z"/>
		<path clip-path="url(#SVGID_00000115478399718049400180000016648746328879876259_)" fill="#114E9D" d="M18.958,26.501v0.353
			h-0.303v0.681v0.252c0,0.025,0.026,0.051,0.051,0.051c0.025,0.025,0.05,0.025,0.076,0.025c0.05,0,0.101-0.025,0.177-0.051
			l0.051,0.354c-0.101,0.05-0.227,0.076-0.354,0.076c-0.076,0-0.151-0.026-0.227-0.051c-0.076-0.025-0.101-0.051-0.151-0.101
			c-0.026-0.051-0.051-0.101-0.076-0.177c0-0.051-0.026-0.151-0.026-0.328v-0.732h-0.202v-0.353h0.202v-0.328l0.454-0.252v0.605
			h0.328V26.501z"/>
		<path clip-path="url(#SVGID_00000115478399718049400180000016648746328879876259_)" fill="#114E9D" d="M19.714,25.845v0.858
			c0.151-0.177,0.328-0.252,0.53-0.252c0.101,0,0.202,0.025,0.277,0.05c0.076,0.025,0.151,0.076,0.177,0.151
			c0.026,0.076,0.076,0.126,0.076,0.202c0,0.076,0.025,0.177,0.025,0.328v1.009h-0.454v-0.908c0-0.177,0-0.303-0.025-0.328
			c-0.026-0.051-0.051-0.076-0.101-0.126c-0.05-0.025-0.101-0.05-0.151-0.05c-0.076,0-0.151,0.025-0.202,0.05
			c-0.051,0.026-0.101,0.101-0.126,0.177c-0.025,0.076-0.05,0.177-0.05,0.328v0.857h-0.454v-2.346H19.714z"/>
		<path clip-path="url(#SVGID_00000115478399718049400180000016648746328879876259_)" fill="#114E9D" d="M22.288,27.208
			c0-0.126-0.025-0.227-0.101-0.302c-0.076-0.076-0.151-0.101-0.227-0.101c-0.101,0-0.177,0.026-0.252,0.101
			c-0.076,0.076-0.101,0.177-0.101,0.302H22.288z M22.263,27.662l0.454,0.076c-0.051,0.177-0.151,0.277-0.278,0.379
			c-0.126,0.101-0.277,0.126-0.479,0.126c-0.303,0-0.504-0.101-0.656-0.277c-0.101-0.151-0.177-0.354-0.177-0.58
			c0-0.278,0.076-0.505,0.227-0.656c0.151-0.151,0.328-0.227,0.555-0.227c0.252,0,0.454,0.075,0.605,0.252
			c0.151,0.177,0.227,0.429,0.202,0.757h-1.135c0,0.126,0.05,0.227,0.101,0.303c0.076,0.076,0.151,0.101,0.252,0.101
			c0.076,0,0.126-0.025,0.177-0.05C22.162,27.838,22.238,27.738,22.263,27.662"/>
	</g>
	<polygon fill="#114E9D" points="24.004,28.192 24.004,25.845 25.745,25.845 25.745,26.249 24.483,26.249 24.483,26.779 
		25.669,26.779 25.669,27.182 24.483,27.182 24.483,27.813 25.795,27.813 25.795,28.217 24.004,28.217 	"/>
	<g>
		<defs>
			<rect id="SVGID_00000121978517944667248700000015855126916008425089_" x="1.12" y="20.043" width="47.759" height="9.915"/>
		</defs>
		<clipPath id="SVGID_00000004530704569702057200000000259638118531405758_">
			<use xlink:href="#SVGID_00000121978517944667248700000015855126916008425089_"  overflow="visible"/>
		</clipPath>
		<path clip-path="url(#SVGID_00000004530704569702057200000000259638118531405758_)" fill="#114E9D" d="M27.309,28.192v-0.252
			c-0.051,0.101-0.151,0.151-0.252,0.227c-0.101,0.05-0.202,0.076-0.328,0.076c-0.126,0-0.227-0.026-0.303-0.076
			c-0.101-0.051-0.151-0.126-0.202-0.202c-0.05-0.101-0.05-0.227-0.05-0.379v-1.085h0.454v0.782c0,0.227,0,0.378,0.025,0.429
			c0.025,0.051,0.05,0.101,0.101,0.126c0.051,0.025,0.101,0.05,0.177,0.05s0.151-0.025,0.202-0.076
			c0.05-0.05,0.101-0.101,0.126-0.151c0.026-0.05,0.026-0.227,0.026-0.454v-0.707h0.454v1.69H27.309z"/>
		<path clip-path="url(#SVGID_00000004530704569702057200000000259638118531405758_)" fill="#114E9D" d="M28.646,28.192h-0.454
			v-1.69h0.429v0.252c0.076-0.126,0.126-0.202,0.202-0.227c0.076-0.025,0.126-0.05,0.202-0.05c0.101,0,0.202,0.025,0.302,0.076
			l-0.151,0.404c-0.076-0.051-0.151-0.076-0.202-0.076c-0.051,0-0.126,0.025-0.151,0.05c-0.025,0.026-0.076,0.101-0.101,0.177
			c-0.025,0.076-0.025,0.278-0.025,0.581v0.504H28.646z"/>
		<path clip-path="url(#SVGID_00000004530704569702057200000000259638118531405758_)" fill="#114E9D" d="M29.832,27.334
			c0,0.177,0.05,0.303,0.126,0.379c0.076,0.101,0.177,0.126,0.303,0.126c0.126,0,0.227-0.051,0.303-0.126
			c0.076-0.076,0.126-0.227,0.126-0.379c0-0.177-0.05-0.302-0.126-0.378c-0.076-0.076-0.177-0.126-0.303-0.126
			c-0.126,0-0.227,0.051-0.303,0.126C29.882,27.056,29.832,27.182,29.832,27.334 M29.377,27.309c0-0.151,0.025-0.303,0.101-0.429
			c0.076-0.151,0.177-0.252,0.303-0.328s0.278-0.101,0.454-0.101c0.252,0,0.479,0.076,0.631,0.252
			c0.151,0.177,0.252,0.379,0.252,0.631s-0.076,0.479-0.252,0.631c-0.177,0.151-0.379,0.252-0.631,0.252
			c-0.151,0-0.303-0.025-0.454-0.101s-0.252-0.177-0.328-0.303C29.403,27.687,29.377,27.511,29.377,27.309"/>
		<path clip-path="url(#SVGID_00000004530704569702057200000000259638118531405758_)" fill="#114E9D" d="M31.926,27.309
			c0,0.202,0.05,0.328,0.126,0.429c0.076,0.101,0.177,0.126,0.278,0.126c0.101,0,0.202-0.051,0.252-0.126
			c0.05-0.076,0.101-0.227,0.101-0.404c0-0.177-0.025-0.302-0.101-0.404c-0.076-0.076-0.151-0.126-0.278-0.126
			c-0.101,0-0.202,0.05-0.277,0.126C31.951,27.031,31.926,27.157,31.926,27.309 M31.472,26.501H31.9v0.252
			c0.051-0.076,0.126-0.151,0.227-0.202c0.101-0.051,0.202-0.076,0.303-0.076c0.202,0,0.353,0.076,0.504,0.227
			c0.126,0.151,0.202,0.378,0.202,0.656c0,0.277-0.076,0.504-0.202,0.656c-0.126,0.151-0.303,0.227-0.504,0.227
			c-0.101,0-0.177-0.026-0.252-0.051c-0.076-0.025-0.151-0.101-0.252-0.202v0.857h-0.454V26.501z"/>
		<path clip-path="url(#SVGID_00000004530704569702057200000000259638118531405758_)" fill="#114E9D" d="M34.499,27.208
			c0-0.126-0.025-0.227-0.101-0.302c-0.076-0.076-0.151-0.101-0.227-0.101c-0.101,0-0.177,0.026-0.252,0.101
			c-0.076,0.076-0.101,0.177-0.101,0.302H34.499z M34.474,27.662l0.454,0.076c-0.051,0.177-0.151,0.277-0.278,0.379
			c-0.126,0.101-0.277,0.126-0.479,0.126c-0.303,0-0.504-0.101-0.656-0.277c-0.101-0.151-0.177-0.354-0.177-0.58
			c0-0.278,0.076-0.505,0.227-0.656c0.151-0.151,0.328-0.227,0.555-0.227c0.252,0,0.454,0.075,0.605,0.252
			c0.151,0.177,0.227,0.429,0.202,0.757h-1.135c0,0.126,0.05,0.227,0.101,0.303c0.076,0.076,0.151,0.101,0.252,0.101
			c0.076,0,0.126-0.025,0.177-0.05C34.373,27.838,34.449,27.738,34.474,27.662"/>
		<path clip-path="url(#SVGID_00000004530704569702057200000000259638118531405758_)" fill="#114E9D" d="M36.24,27.385
			c-0.05,0.025-0.151,0.05-0.277,0.076c-0.126,0.025-0.202,0.05-0.252,0.076c-0.051,0.05-0.076,0.101-0.076,0.151
			c0,0.051,0.025,0.126,0.076,0.151c0.05,0.051,0.101,0.076,0.177,0.076c0.076,0,0.151-0.025,0.227-0.076
			c0.05-0.05,0.101-0.101,0.101-0.151c0-0.05,0.025-0.101,0.025-0.227V27.385z M35.66,27.006l-0.404-0.076
			c0.051-0.177,0.126-0.277,0.227-0.353c0.101-0.076,0.277-0.126,0.504-0.126c0.202,0,0.354,0.025,0.454,0.076
			c0.101,0.051,0.177,0.101,0.202,0.177c0.051,0.076,0.051,0.202,0.051,0.404v0.53c0,0.151,0,0.252,0.025,0.328
			s0.051,0.151,0.076,0.227h-0.454c0-0.026-0.025-0.076-0.05-0.126c0-0.025-0.025-0.05-0.025-0.05
			c-0.076,0.075-0.151,0.126-0.253,0.177c-0.076,0.025-0.177,0.05-0.277,0.05c-0.177,0-0.303-0.05-0.404-0.151
			c-0.101-0.101-0.151-0.227-0.151-0.353c0-0.101,0.025-0.177,0.076-0.252s0.101-0.126,0.202-0.177
			c0.076-0.051,0.202-0.076,0.354-0.101c0.202-0.051,0.353-0.076,0.429-0.101v-0.05c0-0.076-0.025-0.151-0.076-0.177
			c-0.05-0.025-0.126-0.05-0.252-0.05c-0.076,0-0.151,0.025-0.177,0.05C35.71,26.905,35.685,26.93,35.66,27.006"/>
		<path clip-path="url(#SVGID_00000004530704569702057200000000259638118531405758_)" fill="#114E9D" d="M38.687,28.192h-0.454
			v-0.858c0-0.177,0-0.302-0.025-0.353c-0.025-0.051-0.051-0.101-0.101-0.126c-0.051-0.025-0.101-0.05-0.151-0.05
			c-0.076,0-0.151,0.025-0.202,0.076c-0.05,0.05-0.101,0.101-0.126,0.177c-0.025,0.076-0.025,0.202-0.025,0.379v0.782h-0.454v-1.69
			h0.429v0.252c0.151-0.202,0.328-0.277,0.555-0.277c0.101,0,0.202,0.025,0.278,0.051c0.076,0.025,0.151,0.076,0.177,0.126
			c0.05,0.051,0.076,0.126,0.076,0.202c0,0.076,0.025,0.177,0.025,0.302V28.192z"/>
		<path clip-path="url(#SVGID_00000004530704569702057200000000259638118531405758_)" fill="#114E9D" d="M40.05,25.845h0.479v1.262
			c0,0.202,0,0.328,0.025,0.404c0.026,0.101,0.076,0.177,0.151,0.227c0.076,0.05,0.177,0.075,0.303,0.075
			c0.126,0,0.227-0.025,0.303-0.075c0.076-0.051,0.101-0.126,0.126-0.202c0.026-0.076,0.026-0.202,0.026-0.404v-1.287h0.479v1.236
			c0,0.278-0.026,0.479-0.051,0.606c-0.025,0.126-0.076,0.227-0.151,0.303c-0.076,0.076-0.151,0.151-0.277,0.202
			c-0.126,0.051-0.278,0.076-0.454,0.076c-0.227,0-0.404-0.025-0.504-0.076c-0.101-0.05-0.202-0.126-0.278-0.202
			c-0.076-0.076-0.101-0.177-0.126-0.252c-0.026-0.126-0.051-0.328-0.051-0.606V25.845z"/>
		<path clip-path="url(#SVGID_00000004530704569702057200000000259638118531405758_)" fill="#114E9D" d="M43.96,28.192h-0.454
			v-0.858c0-0.177,0-0.302-0.025-0.353c-0.025-0.051-0.051-0.101-0.101-0.126c-0.051-0.025-0.101-0.05-0.151-0.05
			c-0.076,0-0.151,0.025-0.202,0.076c-0.05,0.05-0.101,0.101-0.126,0.177c-0.025,0.076-0.025,0.202-0.025,0.379v0.782h-0.454v-1.69
			h0.429v0.252c0.151-0.202,0.328-0.277,0.555-0.277c0.101,0,0.202,0.025,0.278,0.051c0.076,0.025,0.151,0.076,0.177,0.126
			c0.05,0.051,0.076,0.126,0.076,0.202c0,0.076,0.025,0.177,0.025,0.302V28.192z"/>
	</g>
	<path fill="#114E9D" d="M44.414,28.192h0.454v-1.69h-0.454V28.192z M44.414,26.274h0.454v-0.429h-0.454V26.274z"/>
	<g>
		<defs>
			<rect id="SVGID_00000173844453814865066410000012346730603742480011_" x="1.12" y="20.043" width="47.759" height="9.915"/>
		</defs>
		<clipPath id="SVGID_00000118379593756799341890000012516327223611608764_">
			<use xlink:href="#SVGID_00000173844453814865066410000012346730603742480011_"  overflow="visible"/>
		</clipPath>
		<path clip-path="url(#SVGID_00000118379593756799341890000012516327223611608764_)" fill="#114E9D" d="M45.701,27.334
			c0,0.177,0.051,0.303,0.126,0.379c0.076,0.101,0.177,0.126,0.302,0.126c0.126,0,0.227-0.051,0.303-0.126
			c0.076-0.076,0.126-0.227,0.126-0.379c0-0.177-0.051-0.302-0.126-0.378c-0.076-0.076-0.177-0.126-0.303-0.126
			c-0.126,0-0.227,0.051-0.302,0.126C45.726,27.056,45.701,27.182,45.701,27.334 M45.222,27.309c0-0.151,0.025-0.303,0.101-0.429
			c0.076-0.151,0.177-0.252,0.303-0.328s0.278-0.101,0.454-0.101c0.252,0,0.479,0.076,0.631,0.252
			c0.151,0.177,0.252,0.379,0.252,0.631s-0.076,0.479-0.252,0.631c-0.177,0.151-0.379,0.252-0.631,0.252
			c-0.151,0-0.303-0.025-0.454-0.101c-0.151-0.076-0.252-0.177-0.328-0.303C45.272,27.687,45.222,27.511,45.222,27.309"/>
		<path clip-path="url(#SVGID_00000118379593756799341890000012516327223611608764_)" fill="#114E9D" d="M48.88,28.192h-0.454
			v-0.858c0-0.177,0-0.302-0.025-0.353c-0.025-0.051-0.051-0.101-0.101-0.126c-0.051-0.025-0.101-0.05-0.151-0.05
			c-0.076,0-0.151,0.025-0.202,0.076c-0.05,0.05-0.101,0.101-0.126,0.177c-0.025,0.076-0.025,0.202-0.025,0.379v0.782h-0.454v-1.69
			h0.429v0.252c0.151-0.202,0.328-0.277,0.555-0.277c0.101,0,0.202,0.025,0.278,0.051c0.076,0.025,0.151,0.076,0.177,0.126
			c0.05,0.051,0.076,0.126,0.076,0.202c0,0.076,0.025,0.177,0.025,0.302V28.192z"/>
	</g>
</g>
</svg>
